<?xml version="1.0" encoding="UTF-8"?>
<svg xmlns="http://www.w3.org/2000/svg" xmlns:xlink="http://www.w3.org/1999/xlink" width="109px" height="57px" viewBox="0 0 109 57" version="1.1">
<g id="surface1">
<path style=" stroke:none;fill-rule:nonzero;fill:rgb(0%,0%,0%);fill-opacity:1;" d="M 0 0 C 35.96875 0 71.941406 0 109 0 C 109 18.808594 109 37.621094 109 57 C 73.03125 57 37.058594 57 0 57 C 0 38.191406 0 19.378906 0 0 Z M 0 0 "/>
<path style=" stroke:none;fill-rule:nonzero;fill:rgb(98.431373%,98.431373%,98.431373%);fill-opacity:1;" d="M 42.238281 18.621094 C 44.246094 18.605469 46.25 18.59375 48.257812 18.589844 C 48.941406 18.585938 49.621094 18.582031 50.304688 18.578125 C 51.289062 18.570312 52.269531 18.566406 53.253906 18.5625 C 53.554688 18.5625 53.859375 18.558594 54.167969 18.554688 C 57.363281 18.554688 59.984375 19.09375 62.335938 20.644531 C 64.296875 22.148438 64.953125 23.71875 64.914062 25.730469 C 64.703125 27.488281 63.429688 29.011719 61.585938 30.1875 C 60.8125 30.636719 60.117188 30.96875 59.132812 31.160156 C 59.871094 32.09375 60.8125 32.902344 61.753906 33.738281 C 62.097656 34.042969 62.441406 34.347656 62.78125 34.652344 C 62.949219 34.800781 63.117188 34.949219 63.289062 35.101562 C 63.941406 35.6875 64.589844 36.277344 65.230469 36.871094 C 65.421875 37.050781 65.617188 37.230469 65.816406 37.414062 C 66.21875 37.808594 66.21875 37.808594 66.21875 38 C 60.699219 38.386719 60.699219 38.386719 59.144531 37.796875 C 58.292969 37.257812 57.765625 36.585938 57.238281 35.882812 C 56.75 35.28125 56.125 34.753906 55.503906 34.210938 C 55.292969 34.019531 55.078125 33.824219 54.859375 33.625 C 54.652344 33.4375 54.441406 33.253906 54.226562 33.058594 C 54.039062 32.863281 53.851562 32.667969 53.660156 32.464844 C 53.0625 31.96875 52.65625 31.835938 51.734375 31.773438 C 51.292969 31.765625 50.851562 31.765625 50.40625 31.765625 C 50.054688 31.761719 50.054688 31.761719 49.699219 31.757812 C 48.953125 31.753906 48.210938 31.753906 47.464844 31.753906 C 46.960938 31.75 46.453125 31.746094 45.949219 31.742188 C 44.710938 31.730469 43.476562 31.730469 42.238281 31.730469 C 42.238281 30.539062 42.238281 29.347656 42.238281 28.121094 C 42.664062 28.117188 43.09375 28.117188 43.53125 28.113281 C 45.125 28.105469 46.714844 28.09375 48.304688 28.082031 C 48.992188 28.074219 49.679688 28.070312 50.367188 28.070312 C 51.355469 28.0625 52.34375 28.054688 53.335938 28.046875 C 53.792969 28.046875 53.792969 28.046875 54.261719 28.046875 C 56.03125 28.023438 57.15625 27.914062 58.585938 27.171875 C 59.503906 26.28125 59.644531 25.382812 59.40625 24.320312 C 59.035156 23.597656 58.523438 23.097656 57.632812 22.632812 C 56.570312 22.300781 55.652344 22.207031 54.488281 22.191406 C 54.214844 22.1875 53.941406 22.183594 53.660156 22.179688 C 53.371094 22.175781 53.078125 22.171875 52.777344 22.167969 C 52.476562 22.164062 52.175781 22.160156 51.863281 22.15625 C 50.902344 22.144531 49.941406 22.132812 48.980469 22.125 C 48.332031 22.113281 47.679688 22.105469 47.027344 22.097656 C 45.429688 22.078125 43.835938 22.058594 42.238281 22.039062 C 42.238281 20.910156 42.238281 19.78125 42.238281 18.621094 Z M 42.238281 18.621094 "/>
<path style=" stroke:none;fill-rule:nonzero;fill:rgb(97.647059%,97.647059%,97.647059%);fill-opacity:1;" d="M 58.585938 31.160156 C 59.789062 31.953125 60.785156 32.824219 61.789062 33.738281 C 61.957031 33.886719 62.121094 34.039062 62.292969 34.191406 C 62.785156 34.636719 63.277344 35.082031 63.765625 35.53125 C 63.902344 35.65625 64.039062 35.78125 64.179688 35.910156 C 66.21875 37.769531 66.21875 37.769531 66.21875 38 C 60.699219 38.386719 60.699219 38.386719 59.144531 37.796875 C 58.292969 37.257812 57.765625 36.585938 57.238281 35.882812 C 56.753906 35.28125 56.125 34.761719 55.503906 34.222656 C 54.597656 33.40625 53.714844 32.578125 52.863281 31.730469 C 53.246094 31.714844 53.246094 31.714844 53.632812 31.703125 C 56.15625 31.597656 56.15625 31.597656 58.585938 31.160156 Z M 58.585938 31.160156 "/>
<path style=" stroke:none;fill-rule:nonzero;fill:rgb(99.215686%,99.215686%,99.215686%);fill-opacity:1;" d="M 42.238281 33.628906 C 44.304688 33.628906 46.375 33.628906 48.503906 33.628906 C 48.503906 35.070312 48.503906 36.515625 48.503906 38 C 46.4375 38 44.367188 38 42.238281 38 C 42.238281 36.558594 42.238281 35.117188 42.238281 33.628906 Z M 42.238281 33.628906 "/>
<path style=" stroke:none;fill-rule:nonzero;fill:rgb(97.254902%,97.254902%,97.254902%);fill-opacity:1;" d="M 44.417969 23.941406 C 50.09375 23.605469 50.09375 23.605469 51.480469 24.140625 C 52.292969 24.667969 52.765625 25.308594 53.136719 26.03125 C 53.136719 26.09375 53.136719 26.15625 53.136719 26.21875 C 46.953125 26.550781 46.953125 26.550781 45.679688 25.808594 C 44.417969 24.6875 44.417969 24.6875 44.417969 23.941406 Z M 44.417969 23.941406 "/>
<path style=" stroke:none;fill-rule:nonzero;fill:rgb(47.450981%,47.450981%,49.019608%);fill-opacity:1;" d="M 42.238281 22.039062 C 46.734375 22.039062 51.230469 22.039062 55.863281 22.039062 C 55.863281 22.101562 55.863281 22.164062 55.863281 22.230469 C 53.703125 22.292969 51.546875 22.355469 49.324219 22.421875 C 49.414062 22.671875 49.503906 22.921875 49.59375 23.179688 C 49.773438 23.179688 49.953125 23.179688 50.140625 23.179688 C 50.320312 23.429688 50.5 23.679688 50.683594 23.941406 C 48.527344 24.003906 46.367188 24.066406 44.144531 24.128906 C 43.964844 23.816406 43.785156 23.503906 43.601562 23.179688 C 43.421875 23.179688 43.242188 23.179688 43.054688 23.179688 C 42.785156 22.804688 42.515625 22.425781 42.238281 22.039062 Z M 42.238281 22.039062 "/>
<path style=" stroke:none;fill-rule:nonzero;fill:rgb(48.235294%,48.627451%,49.803922%);fill-opacity:1;" d="M 58.585938 31.160156 C 59.484375 31.75 60.179688 32.304688 60.765625 33.058594 C 56.691406 33.96875 56.691406 33.96875 55.046875 33.628906 C 54.171875 33.128906 53.496094 32.570312 52.863281 31.921875 C 52.863281 31.855469 52.863281 31.792969 52.863281 31.730469 C 53.246094 31.714844 53.246094 31.714844 53.632812 31.703125 C 56.15625 31.597656 56.15625 31.597656 58.585938 31.160156 Z M 58.585938 31.160156 "/>
<path style=" stroke:none;fill-rule:nonzero;fill:rgb(44.705883%,45.09804%,46.27451%);fill-opacity:1;" d="M 42.238281 22.039062 C 46.734375 22.039062 51.230469 22.039062 55.863281 22.039062 C 55.863281 22.101562 55.863281 22.164062 55.863281 22.230469 C 53.703125 22.292969 51.546875 22.355469 49.324219 22.421875 C 49.414062 22.671875 49.503906 22.921875 49.59375 23.179688 C 48.777344 23.179688 48.777344 23.179688 48.234375 22.988281 C 48.234375 22.863281 48.234375 22.738281 48.234375 22.609375 C 47.242188 22.609375 46.253906 22.609375 45.234375 22.609375 C 45.144531 22.734375 45.054688 22.859375 44.960938 22.988281 C 44.691406 23.085938 44.691406 23.085938 44.417969 23.179688 C 44.417969 22.992188 44.417969 22.804688 44.417969 22.609375 C 44.058594 22.609375 43.699219 22.609375 43.328125 22.609375 C 43.328125 22.734375 43.328125 22.859375 43.328125 22.988281 C 43.507812 23.050781 43.6875 23.117188 43.871094 23.179688 C 43.601562 23.179688 43.332031 23.179688 43.054688 23.179688 C 42.785156 22.804688 42.515625 22.425781 42.238281 22.039062 Z M 42.238281 22.039062 "/>
<path style=" stroke:none;fill-rule:nonzero;fill:rgb(46.666667%,46.27451%,47.843137%);fill-opacity:1;" d="M 52.863281 31.730469 C 53.855469 31.730469 54.84375 31.730469 55.863281 31.730469 C 55.683594 31.855469 55.503906 31.980469 55.316406 32.109375 C 55.40625 32.699219 55.40625 32.699219 55.589844 33.25 C 55.859375 33.25 56.128906 33.25 56.40625 33.25 C 56.40625 33.375 56.40625 33.5 56.40625 33.628906 C 55.800781 33.683594 55.800781 33.683594 55.046875 33.628906 C 54.433594 33.261719 54.433594 33.261719 53.871094 32.785156 C 53.679688 32.628906 53.488281 32.472656 53.292969 32.3125 C 52.863281 31.921875 52.863281 31.921875 52.863281 31.730469 Z M 52.863281 31.730469 "/>
<path style=" stroke:none;fill-rule:nonzero;fill:rgb(7.450981%,8.235294%,8.235294%);fill-opacity:1;" d="M 60.765625 30.398438 C 60.765625 30.941406 60.648438 31.394531 60.496094 31.921875 C 60.496094 32.046875 60.496094 32.171875 60.496094 32.300781 C 60.675781 32.363281 60.855469 32.425781 61.039062 32.488281 C 60.769531 32.550781 60.5 32.617188 60.222656 32.679688 C 59.773438 32.242188 59.324219 31.800781 58.859375 31.351562 C 59.269531 30.777344 59.957031 30.664062 60.765625 30.398438 Z M 60.765625 30.398438 "/>
<path style=" stroke:none;fill-rule:nonzero;fill:rgb(7.058824%,7.058824%,7.058824%);fill-opacity:1;" d="M 63.21875 35.148438 C 63.847656 35.210938 64.480469 35.277344 65.128906 35.339844 C 65.128906 35.777344 65.128906 36.21875 65.128906 36.671875 C 64.949219 36.671875 64.769531 36.671875 64.582031 36.671875 C 64.230469 36.335938 64.230469 36.335938 63.867188 35.910156 C 63.746094 35.769531 63.625 35.628906 63.5 35.484375 C 63.40625 35.371094 63.316406 35.261719 63.21875 35.148438 Z M 63.21875 35.148438 "/>
<path style=" stroke:none;fill-rule:nonzero;fill:rgb(86.666667%,87.058824%,87.058824%);fill-opacity:1;" d="M 44.417969 23.941406 C 46.574219 23.941406 48.734375 23.941406 50.957031 23.941406 C 50.957031 24.003906 50.957031 24.066406 50.957031 24.128906 C 50.019531 24.160156 49.085938 24.195312 48.148438 24.226562 C 47.882812 24.234375 47.613281 24.242188 47.339844 24.253906 C 47.085938 24.261719 46.828125 24.269531 46.566406 24.277344 C 46.332031 24.285156 46.097656 24.292969 45.851562 24.300781 C 45.375 24.316406 44.894531 24.320312 44.417969 24.320312 C 44.417969 24.195312 44.417969 24.070312 44.417969 23.941406 Z M 44.417969 23.941406 "/>
<path style=" stroke:none;fill-rule:nonzero;fill:rgb(20.392157%,20.392157%,20.392157%);fill-opacity:1;" d="M 58.585938 23.179688 C 59.199219 23.570312 59.40625 23.75 59.675781 24.320312 C 59.695312 24.617188 59.699219 24.914062 59.695312 25.210938 C 59.691406 25.363281 59.691406 25.519531 59.6875 25.675781 C 59.683594 25.792969 59.679688 25.910156 59.675781 26.03125 C 59.585938 26.03125 59.496094 26.03125 59.40625 26.03125 C 59.226562 25.402344 59.046875 24.777344 58.859375 24.128906 C 58.679688 24.128906 58.5 24.128906 58.316406 24.128906 C 58.40625 23.816406 58.496094 23.503906 58.585938 23.179688 Z M 58.585938 23.179688 "/>
<path style=" stroke:none;fill-rule:nonzero;fill:rgb(52.549022%,52.941179%,54.901963%);fill-opacity:1;" d="M 59.132812 32.109375 C 59.941406 32.484375 59.941406 32.484375 60.765625 32.871094 C 60.125 33.316406 59.738281 33.34375 58.859375 33.441406 C 58.949219 33.25 59.039062 33.0625 59.132812 32.871094 C 59.132812 32.746094 59.132812 32.621094 59.132812 32.488281 C 59.132812 32.363281 59.132812 32.238281 59.132812 32.109375 Z M 59.132812 32.109375 "/>
<path style=" stroke:none;fill-rule:nonzero;fill:rgb(92.941177%,92.941177%,92.941177%);fill-opacity:1;" d="M 55.046875 33.628906 C 55.496094 33.628906 55.945312 33.628906 56.40625 33.628906 C 56.496094 34.070312 56.585938 34.507812 56.679688 34.960938 C 55.351562 34.058594 55.351562 34.058594 55.046875 33.628906 Z M 55.046875 33.628906 "/>
<path style=" stroke:none;fill-rule:nonzero;fill:rgb(2.352941%,2.352941%,2.352941%);fill-opacity:1;" d="M 48.777344 33.628906 C 49.226562 33.628906 49.675781 33.628906 50.140625 33.628906 C 49.960938 33.945312 49.78125 34.257812 49.59375 34.578125 C 49.324219 34.578125 49.054688 34.578125 48.777344 34.578125 C 48.777344 34.265625 48.777344 33.953125 48.777344 33.628906 Z M 48.777344 33.628906 "/>
<path style=" stroke:none;fill-rule:nonzero;fill:rgb(50.196081%,50.588238%,52.156866%);fill-opacity:1;" d="M 43.328125 22.609375 C 43.6875 22.609375 44.046875 22.609375 44.417969 22.609375 C 44.597656 22.984375 44.777344 23.363281 44.960938 23.75 C 44.296875 23.609375 44.296875 23.609375 43.601562 23.371094 C 43.378906 22.964844 43.378906 22.964844 43.328125 22.609375 Z M 43.328125 22.609375 "/>
</g>
</svg>
