<?xml version="1.0" encoding="UTF-8"?>
<svg xmlns="http://www.w3.org/2000/svg" xmlns:xlink="http://www.w3.org/1999/xlink" width="109px" height="57px" viewBox="0 0 109 57" version="1.1">
<g id="surface1">
<path style=" stroke:none;fill-rule:nonzero;fill:rgb(99.607843%,99.215686%,99.215686%);fill-opacity:1;" d="M 0 0 C 35.96875 0 71.941406 0 109 0 C 109 18.808594 109 37.621094 109 57 C 73.03125 57 37.058594 57 0 57 C 0 38.191406 0 19.378906 0 0 Z M 0 0 "/>
<path style=" stroke:none;fill-rule:nonzero;fill:rgb(16.078432%,14.901961%,15.294118%);fill-opacity:1;" d="M 66.855469 12.058594 C 67.203125 12.242188 67.550781 12.421875 67.910156 12.609375 C 68.597656 12.792969 69.292969 12.972656 69.992188 13.148438 C 72.292969 13.785156 73.53125 14.671875 75.003906 15.863281 C 75.621094 16.417969 75.621094 16.417969 76.558594 16.644531 C 76.828125 17.292969 76.828125 17.292969 76.992188 17.90625 C 77.277344 17.90625 77.5625 17.90625 77.855469 17.90625 C 79.613281 20.78125 80.148438 24.160156 77.855469 26.988281 C 77.703125 27.179688 77.546875 27.371094 77.386719 27.570312 C 76.980469 28.054688 76.554688 28.53125 76.128906 29.003906 C 75.839844 29.003906 75.554688 29.003906 75.261719 29.003906 C 75.148438 29.15625 75.03125 29.308594 74.914062 29.460938 C 73.535156 30.933594 70.441406 32.0625 67.910156 32.789062 C 63.292969 33.511719 58.839844 33.292969 54.695312 31.957031 C 53.628906 31.523438 52.757812 31.089844 51.90625 30.519531 C 51.90625 30.351562 51.90625 30.183594 51.90625 30.011719 C 51.476562 29.929688 51.046875 29.847656 50.605469 29.761719 C 50.117188 29.332031 50.117188 29.332031 49.6875 28.800781 C 49.542969 28.625 49.398438 28.453125 49.253906 28.273438 C 48.042969 26.5625 47.933594 24.414062 48.6875 22.625 C 49.011719 22.179688 49.011719 22.179688 49.742188 21.4375 C 49.9375 21.214844 50.132812 20.992188 50.335938 20.761719 C 51.753906 19.585938 53.40625 18.96875 55.796875 18.664062 C 60.847656 18.4375 60.847656 18.4375 63.152344 19.421875 C 63.832031 20.214844 63.734375 20.8125 63.582031 21.691406 C 62.15625 23.09375 62.15625 23.09375 60.535156 23.335938 C 59.679688 23.386719 58.820312 23.421875 57.960938 23.457031 C 56.953125 23.933594 56.953125 23.933594 57.011719 24.726562 C 57.019531 25.023438 57.03125 25.324219 57.042969 25.632812 C 57.050781 25.929688 57.058594 26.230469 57.066406 26.539062 C 57.074219 26.769531 57.085938 27 57.09375 27.238281 C 57.4375 27.316406 57.777344 27.394531 58.128906 27.472656 C 59.257812 27.742188 59.257812 27.742188 60.042969 28.011719 C 61.476562 28.371094 62.898438 28.410156 64.449219 28.5 C 64.449219 28.332031 64.449219 28.167969 64.449219 27.996094 C 65.144531 27.695312 65.144531 27.695312 66.070312 27.378906 C 66.386719 27.269531 66.703125 27.15625 67.027344 27.039062 C 67.660156 26.820312 68.296875 26.601562 68.9375 26.386719 C 71.058594 25.152344 70.621094 23.128906 70.660156 21.515625 C 70.492188 20.613281 70.0625 20.160156 69.207031 19.421875 C 69.207031 19.253906 69.207031 19.085938 69.207031 18.914062 C 68.5625 18.792969 68.5625 18.792969 67.910156 18.664062 C 67.660156 18.511719 67.410156 18.363281 67.152344 18.207031 C 64.132812 16.492188 61.015625 16.324219 56.96875 16.335938 C 54.734375 16.417969 52.714844 16.730469 50.605469 17.152344 C 50.605469 17.316406 50.605469 17.484375 50.605469 17.65625 C 49.992188 17.953125 49.378906 18.25 48.753906 18.542969 C 45.726562 20.058594 43.90625 21.917969 43.253906 24.210938 C 43.210938 24.792969 43.1875 25.378906 43.179688 25.960938 C 43.175781 26.132812 43.171875 26.300781 43.171875 26.476562 C 43.164062 26.847656 43.160156 27.214844 43.15625 27.585938 C 43.148438 28.167969 43.136719 28.753906 43.125 29.335938 C 43.097656 30.996094 43.070312 32.65625 43.046875 34.316406 C 43.035156 35.335938 43.015625 36.351562 42.996094 37.367188 C 42.988281 37.753906 42.984375 38.140625 42.980469 38.53125 C 42.972656 39.070312 42.964844 39.609375 42.953125 40.152344 C 42.949219 40.460938 42.945312 40.765625 42.9375 41.085938 C 42.828125 41.835938 42.703125 42.265625 41.957031 42.875 C 40.207031 43.214844 38.59375 43.269531 36.765625 43.128906 C 35.453125 42.574219 35.113281 42.257812 34.601562 41.363281 C 34.558594 40.808594 34.539062 40.257812 34.535156 39.703125 C 34.53125 39.535156 34.527344 39.371094 34.527344 39.195312 C 34.519531 38.640625 34.519531 38.085938 34.515625 37.535156 C 34.511719 37.144531 34.511719 36.757812 34.507812 36.371094 C 34.503906 35.558594 34.5 34.742188 34.5 33.929688 C 34.496094 32.894531 34.488281 31.859375 34.472656 30.824219 C 34.464844 30.019531 34.464844 29.21875 34.464844 28.417969 C 34.460938 28.035156 34.457031 27.65625 34.453125 27.273438 C 34.414062 24.449219 34.660156 21.695312 37.171875 19.199219 C 37.378906 18.988281 37.589844 18.773438 37.804688 18.554688 C 40.898438 15.652344 45.109375 12.71875 51.039062 11.855469 C 51.609375 11.855469 52.179688 11.855469 52.769531 11.855469 C 52.769531 11.6875 52.769531 11.519531 52.769531 11.347656 C 57.023438 10.898438 63.160156 10.535156 66.855469 12.058594 Z M 66.855469 12.058594 "/>
<path style=" stroke:none;fill-rule:nonzero;fill:rgb(17.647059%,16.078432%,16.470589%);fill-opacity:1;" d="M 71.367188 34.300781 C 72.695312 34.898438 72.695312 34.898438 73.53125 35.5625 C 73.53125 35.726562 73.53125 35.894531 73.53125 36.066406 C 73.816406 36.066406 74.101562 36.066406 74.398438 36.066406 C 74.539062 36.398438 74.683594 36.730469 74.828125 37.074219 C 75.113281 37.074219 75.398438 37.074219 75.695312 37.074219 C 75.84375 37.253906 75.996094 37.433594 76.152344 37.617188 C 76.449219 37.964844 76.449219 37.964844 76.75 38.320312 C 77.042969 38.667969 77.042969 38.667969 77.34375 39.019531 C 77.773438 39.574219 77.773438 39.574219 78.289062 39.847656 C 78.351562 40.523438 78.308594 41.191406 78.289062 41.867188 C 78.003906 41.867188 77.71875 41.867188 77.425781 41.867188 C 77.371094 42.027344 77.316406 42.191406 77.261719 42.355469 C 77.128906 42.613281 77.128906 42.613281 76.992188 42.875 C 75.980469 43.171875 75.332031 43.171875 74.207031 43.175781 C 73.871094 43.179688 73.53125 43.183594 73.183594 43.1875 C 72.234375 43.128906 72.234375 43.128906 70.9375 42.625 C 70.335938 42.097656 70.335938 42.097656 69.773438 41.488281 C 69.585938 41.289062 69.394531 41.089844 69.203125 40.882812 C 68.773438 40.355469 68.773438 40.355469 68.773438 39.847656 C 68.488281 39.847656 68.203125 39.847656 67.910156 39.847656 C 67.792969 39.605469 67.675781 39.359375 67.558594 39.109375 C 67.386719 38.855469 67.21875 38.597656 67.042969 38.335938 C 66.617188 38.253906 66.1875 38.167969 65.746094 38.085938 C 65.648438 37.726562 65.5625 37.371094 65.476562 37.011719 C 65.425781 36.8125 65.375 36.613281 65.324219 36.410156 C 65.3125 35.714844 65.523438 35.382812 66.179688 34.804688 C 67.910156 34.132812 69.332031 34.089844 71.367188 34.300781 Z M 71.367188 34.300781 "/>
</g>
</svg>
